<svg baseProfile="full" height="800" id="Layout" preserveAspectRatio="xMidYMid meet" style="background-color: none" version="1.1" viewBox="-2000 -1200 6438 4838" width="800" x="0" xmlns="http://www.w3.org/2000/svg" xmlns:ev="http://www.w3.org/2001/xml-events" xmlns:xlink="http://www.w3.org/1999/xlink" y="0"><defs /><g id="Room" style="fill:none;"><g id="Walls" style="stroke:black; stroke-width:12"><polygon points="-100,-100 -100,2538 1319,2538 1319,1319 2538,1319 2538,229 2538,-100" style="stroke:black;stroke-width:12;fill:#555" /><polygon points="0,0 0,2438 1219,2438 1219,1219 2438,1219 2438,229 2438,0" style="stroke:black;stroke-width:12;fill:white" /></g><g id="openings"><g transform="translate(2438, 991) rotate(180)"><g style="stroke:black;"><g style="stroke:black;stroke-width:12"><polygon points="0,0 -100,0 -100,762.0 0,762.0" style="fill:white" /></g><g style="stroke:black;" transform="translate(-100, 762.0) rotate(0) scale(1, -1)"><g style="stroke-width:8;"><rect height="30" width="762.0" x="100" y="0" /></g><g style="stroke-width:5;"><path d="M 862.0 0 a 762.0 762.0 0 0,1 -762.0 762.0" /></g></g></g></g></g></g><g id="Dimension_Lines" style="fill:none;"><g id="wall_case_0" transform="translate(-200, 0)"><g style="fill:none; stroke:rgb(211,211,211); stroke-width:10" transform="rotate(0)"><line x1="0" x2="-200" y1="0" y2="0" /><line x1="-200" x2="-200" y1="0" y2="813" /><line x1="0" x2="-200" y1="813" y2="813" /><line x1="-200" x2="-200" y1="813" y2="916.0" /><line x1="0" x2="-200" y1="916.0" y2="916.0" /><line x1="-200" x2="-200" y1="916.0" y2="1513.0" /><line x1="0" x2="-200" y1="1513.0" y2="1513.0" /><line x1="-200" x2="-200" y1="1513.0" y2="2438.0" /><line x1="0" x2="-200" y1="2438" y2="2438" /></g><g style="stroke:none; fill:rgb(171,171,171);"><text font-family="Arial, Helvetica" font-size="140" text-anchor="end" x="-250" y="476.5">2' 8"</text><text font-family="Arial, Helvetica" font-size="140" text-anchor="end" x="-250" y="934.5"> 4"</text><text font-family="Arial, Helvetica" font-size="140" text-anchor="end" x="-250" y="1284.5">1' 11 1/2"</text><text font-family="Arial, Helvetica" font-size="140" text-anchor="end" x="-250" y="2045.5">3'</text></g><g style="fill:none; stroke:rgb(211,211,211); stroke-width:10" transform="translate(-800, 0) rotate(0)"><line x1="0" x2="-200" y1="0" y2="0" /><line x1="-200" x2="-200" y1="0" y2="2438.0" /><line x1="0" x2="-200" y1="2438.0" y2="2438.0" /></g><g style="stroke:none; fill:rgb(171,171,171);" transform="translate(-800, 0)"><text font-family="Arial, Helvetica" font-size="140" text-anchor="end" x="-250" y="1289.0">8'</text></g></g><g id="wall_case_1" transform="translate(0, 2638)"><g style="fill:none; stroke:rgb(211,211,211); stroke-width:10" transform="rotate(270)" /><g style="stroke:none; fill:rgb(171,171,171);" /><g style="fill:none; stroke:rgb(211,211,211); stroke-width:10" transform="rotate(270)"><line x1="0" x2="-200" y1="0" y2="0" /><line x1="-200" x2="-200" y1="0" y2="1219.0" /><line x1="0" x2="-200" y1="1219" y2="1219" /><line x1="-200" x2="-200" y1="1219" y2="2438.0" /><line x1="0" x2="-200" y1="2438.0" y2="2438.0" /></g><g style="stroke:none; fill:rgb(171,171,171);"><text font-family="Arial, Helvetica" font-size="140" text-anchor="middle" x="609.5" y="390">4'</text><text font-family="Arial, Helvetica" font-size="140" text-anchor="middle" x="1828.5" y="390">4'</text></g></g><g id="wall_case_2" transform="translate(2638, 2438)"><g style="fill:none; stroke:rgb(211,211,211); stroke-width:10" transform="rotate(180)"><line x1="0" x2="-200" y1="0" y2="0" /><line x1="-200" x2="-200" y1="0" y2="463" /><line x1="0" x2="-200" y1="463" y2="463" /><line x1="-200" x2="-200" y1="463" y2="869" /><line x1="0" x2="-200" y1="869" y2="869" /><line x1="-200" x2="-200" y1="869" y2="1219" /><line x1="0" x2="-200" y1="1219" y2="1219" /><line x1="0" x2="-200" y1="1219" y2="1219" /><line x1="-200" x2="-200" y1="1219" y2="1447" /><line x1="0" x2="-200" y1="1447" y2="1447" /><line x1="-200" x2="-200" y1="1447" y2="2209" /><line x1="0" x2="-200" y1="2209" y2="2209" /><line x1="-200" x2="-200" y1="2209" y2="2438" /><line x1="0" x2="-200" y1="2438" y2="2438" /></g><g style="stroke:none; fill:rgb(171,171,171);"><text font-family="Arial, Helvetica" font-size="140" text-anchor="start" x="250" y="-161.5">1' 6 1/4"</text><text font-family="Arial, Helvetica" font-size="140" text-anchor="start" x="250" y="-596.0">1' 4"</text><text font-family="Arial, Helvetica" font-size="140" text-anchor="start" x="250" y="-974.0">1' 1 3/4"</text><text font-family="Arial, Helvetica" font-size="140" text-anchor="start" x="250" y="-1263.0"> 9"</text><text font-family="Arial, Helvetica" font-size="140" text-anchor="start" x="250" y="-1758.0">2' 6"</text><text font-family="Arial, Helvetica" font-size="140" text-anchor="start" x="250" y="-2253.5"> 9"</text></g><g style="fill:none; stroke:rgb(211,211,211); stroke-width:10" transform="translate(800, 0) rotate(180)"><line x1="0" x2="-200" y1="0" y2="0" /><line x1="-200" x2="-200" y1="0" y2="1219.0" /><line x1="0" x2="-200" y1="1219" y2="1219" /><line x1="-200" x2="-200" y1="1219" y2="2438.0" /><line x1="0" x2="-200" y1="2438.0" y2="2438.0" /></g><g style="stroke:none; fill:rgb(171,171,171);" transform="translate(800, 0)"><text font-family="Arial, Helvetica" font-size="140" text-anchor="start" x="250" y="-539.5">4'</text><text font-family="Arial, Helvetica" font-size="140" text-anchor="start" x="250" y="-1758.5">4'</text></g></g><g id="wall_case_3" transform="translate(2438, -200)"><g style="fill:none; stroke:rgb(211,211,211); stroke-width:10" transform="rotate(90)" /><g style="stroke:none; fill:rgb(171,171,171);" /><g style="fill:none; stroke:rgb(211,211,211); stroke-width:10" transform="rotate(90)"><line x1="0" x2="-200" y1="0" y2="0" /><line x1="-200" x2="-200" y1="0" y2="2438.0" /><line x1="0" x2="-200" y1="2438.0" y2="2438.0" /></g><g style="stroke:none; fill:rgb(171,171,171);"><text font-family="Arial, Helvetica" font-size="140" text-anchor="middle" x="-1219.0" y="-250">8'</text></g></g></g><g id="Furniture"><g transform="translate(0, 0) rotate(0) scale(1, 1)"><ns0:g xmlns:ns0="http://www.w3.org/2000/svg">
	<ns0:g id="CIRCLE">
		
			<ns0:path d="    M276.23,231.77c0,24.552-19.9,44.45-44.45,44.45c-24.55,0-44.45-19.898-44.45-44.45c0-24.55,19.9-44.448,44.45-44.448    C256.32,187.32,276.23,207.22,276.23,231.77L276.23,231.77z" fill="none" stroke="#575858" stroke-linecap="round" stroke-linejoin="round" stroke-miterlimit="10" stroke-width="2.5" />
	</ns0:g>
	<ns0:g id="LINE_8_">
		
			<ns0:line fill="none" stroke="#575858" stroke-linecap="round" stroke-linejoin="round" stroke-miterlimit="10" stroke-width="2.5" x1="50.8" x2="200.34" y1="50.8" y2="200.34" />
	</ns0:g>
	<ns0:g id="LINE_11_">
		
			<ns0:line fill="none" stroke="#575858" stroke-linecap="round" stroke-linejoin="round" stroke-miterlimit="10" stroke-width="2.5" x1="822.32" x2="822.32" y1="263.52" y2="771.52" />
	</ns0:g>
	<ns0:g id="LINE_12_">
		
			<ns0:line fill="none" stroke="#575858" stroke-linecap="round" stroke-linejoin="round" stroke-miterlimit="10" stroke-width="2.5" x1="771.53" x2="771.53" y1="771.52" y2="263.52" />
	</ns0:g>
	<ns0:g id="LINE_13_">
		
			<ns0:line fill="none" stroke="#575858" stroke-linecap="round" stroke-linejoin="round" stroke-miterlimit="10" stroke-width="2.5" x1="263.21" x2="771.53" y1="263.21" y2="771.52" />
	</ns0:g>
	<ns0:g id="LINE_14_">
		
			<ns0:line fill="none" stroke="#575858" stroke-linecap="round" stroke-linejoin="round" stroke-miterlimit="10" stroke-width="2.5" x1="217.64" x2="50.8" y1="273.92" y2="771.52" />
	</ns0:g>
	<ns0:g id="LINE_15_">
		
			<ns0:line fill="none" stroke="#575858" stroke-linecap="round" stroke-linejoin="round" stroke-miterlimit="10" stroke-width="2.5" x1="273.92" x2="771.53" y1="217.64" y2="50.8" />
	</ns0:g>
	<ns0:g id="POLYLINE">
		
			<ns0:line fill="none" stroke="#010101" stroke-linecap="round" stroke-linejoin="round" stroke-miterlimit="10" stroke-width="5" x1="771.53" x2="771.53" y1="263.52" y2="0.119" />
	</ns0:g>
	<ns0:g id="POLYLINE_1_">
		
			<ns0:polyline fill="none" points="    50.8,50.8 50.8,771.52 771.53,771.52   " stroke="#010101" stroke-linecap="round" stroke-linejoin="round" stroke-miterlimit="10" stroke-width="2.5" />
	</ns0:g>
	<ns0:g id="ARC">
		
			<ns0:path d="    M771.53,263.52c134.729,0,263.938,53.521,359.2,148.789" fill="none" stroke="#010101" stroke-linecap="round" stroke-linejoin="round" stroke-miterlimit="10" stroke-width="2.5" />
	</ns0:g>
	<ns0:g id="LINE">
		
			<ns0:line fill="none" stroke="#010101" stroke-linecap="round" stroke-linejoin="round" stroke-miterlimit="10" stroke-width="2.5" x1="1130.73" x2="771.53" y1="412.309" y2="771.52" />
	</ns0:g>
	<ns0:g id="LINE_2_">
		
			<ns0:line fill="none" stroke="#010101" stroke-linecap="round" stroke-linejoin="round" stroke-miterlimit="10" stroke-width="2.5" x1="50.8" x2="769.3" y1="50.8" y2="50.8" />
	</ns0:g>
	<ns0:g id="LINE_3_">
		
			<ns0:line fill="none" stroke="#010101" stroke-linecap="round" stroke-linejoin="round" stroke-miterlimit="10" stroke-width="2.5" x1="0" x2="0" y1="0" y2="822.32" />
	</ns0:g>
	<ns0:g id="LINE_4_">
		
			<ns0:line fill="none" stroke="#010101" stroke-linecap="round" stroke-linejoin="round" stroke-miterlimit="10" stroke-width="5" x1="772.319" x2="822.32" y1="822.32" y2="822.32" />
		
			<ns0:line fill="none" stroke="#010101" stroke-linecap="round" stroke-linejoin="round" stroke-miterlimit="10" stroke-width="2.5" x1="0" x2="772.319" y1="822.32" y2="822.32" />
	</ns0:g>
	<ns0:g id="LINE_5_">
		
			<ns0:line fill="none" stroke="#010101" stroke-linecap="round" stroke-linejoin="round" stroke-miterlimit="10" stroke-width="5" x1="822.32" x2="822.32" y1="822.32" y2="771.52" />
	</ns0:g>
	<ns0:g id="LINE_6_">
		
			<ns0:line fill="none" stroke="#010101" stroke-linecap="round" stroke-linejoin="round" stroke-miterlimit="10" stroke-width="5" x1="822.32" x2="822.32" y1="263.52" y2="0" />
	</ns0:g>
	<ns0:g id="LINE_7_">
		
			<ns0:line fill="none" stroke="#010101" stroke-linecap="round" stroke-linejoin="round" stroke-miterlimit="10" stroke-width="2.5" x1="771.531" x2="0" y1="0" y2="0" />
		
			<ns0:line fill="none" stroke="#010101" stroke-linecap="round" stroke-linejoin="round" stroke-miterlimit="10" stroke-width="5" x1="822.32" x2="771.531" y1="0" y2="0" />
	</ns0:g>
	<ns0:g id="LINE_9_">
		
			<ns0:line fill="none" stroke="#010101" stroke-linecap="round" stroke-linejoin="round" stroke-miterlimit="10" stroke-width="5" x1="771.53" x2="822.32" y1="263.52" y2="263.52" />
	</ns0:g>
	<ns0:g id="LINE_10_">
		
			<ns0:line fill="none" stroke="#010101" stroke-linecap="round" stroke-linejoin="round" stroke-miterlimit="10" stroke-width="5" x1="771.53" x2="822.32" y1="771.52" y2="771.52" />
	</ns0:g>
	<ns0:g id="LINE_16_">
		
			<ns0:line fill="none" stroke="#010101" stroke-linecap="round" stroke-linejoin="round" stroke-miterlimit="10" stroke-width="5" x1="772.32" x2="772.32" y1="823.317" y2="772.517" />
	</ns0:g>
</ns0:g>
</g><g transform="translate(0, 916.0) rotate(0) scale(1, 1)"><ns0:g xmlns:ns0="http://www.w3.org/2000/svg" style="fill:none;stroke:black;stroke-width:5;">
            <ns0:rect height="597" style="stroke-width:6;" width="457" x="0" y="0" />
            <ns0:ellipse cx="216" cy="299" rx="150" ry="210" />
            <ns0:circle cx="154" cy="299" r="25" />
        </ns0:g>
    </g><g transform="translate(1219, 1975) rotate(180) scale(1, 1)"><ns0:g xmlns:ns0="http://www.w3.org/2000/svg">
	<ns0:g>
		<ns0:g id="LINE_1_">
			
				<ns0:line fill="none" stroke="#030303" stroke-linecap="round" stroke-linejoin="round" stroke-miterlimit="10" stroke-width="6" x1="239.6" x2="196.8" y1="92" y2="92" />
		</ns0:g>
		<ns0:g id="LINE_2_">
			
				<ns0:line fill="none" stroke="#030303" stroke-linecap="round" stroke-linejoin="round" stroke-miterlimit="10" stroke-width="6" x1="239.6" x2="196.8" y1="300.5" y2="300.5" />
		</ns0:g>
		<ns0:g id="LINE_4_">
			
				<ns0:line fill="none" stroke="#030303" stroke-linecap="round" stroke-linejoin="round" stroke-miterlimit="10" stroke-width="6" x1="4.3" x2="4.3" y1="369.8" y2="37.5" />
		</ns0:g>
		<ns0:g id="ARC_3_">
			<ns0:path d="     M4,369.8c0,18.3,13.2,33.5,29.4,33.5" fill="none" stroke="#030303" stroke-linecap="round" stroke-linejoin="round" stroke-miterlimit="10" stroke-width="6" />
		</ns0:g>
		<ns0:g id="LINE_5_">
			
				<ns0:line fill="none" stroke="#030303" stroke-linecap="round" stroke-linejoin="round" stroke-miterlimit="10" stroke-width="6" x1="196.8" x2="33.4" y1="403.2" y2="403.2" />
		</ns0:g>
		<ns0:g id="LINE_6_">
			
				<ns0:line fill="none" stroke="#030303" stroke-linecap="round" stroke-linejoin="round" stroke-miterlimit="10" stroke-width="6" x1="27.9" x2="196.8" y1="2.7" y2="2.7" />
		</ns0:g>
		<ns0:g id="ARC_4_">
			<ns0:path d="     M33.6,2.7C17.5,2.7,4.3,17.8,4.3,36.1" fill="none" stroke="#030303" stroke-linecap="round" stroke-linejoin="round" stroke-miterlimit="10" stroke-width="6" />
		</ns0:g>
		<ns0:g id="LINE_7_">
			
				<ns0:line fill="none" stroke="#030303" stroke-linecap="round" stroke-linejoin="round" stroke-miterlimit="10" stroke-width="6" x1="196.8" x2="196.8" y1="401.1" y2="6.3" />
		</ns0:g>
		
			<ns0:line fill="none" stroke="#030303" stroke-linecap="round" stroke-linejoin="round" stroke-miterlimit="10" stroke-width="6" x1="239.6" x2="239.6" y1="91.9" y2="300.5" />
	</ns0:g>
	<ns0:path d="   M241.2,93.1c43.6-54,120.6-87.7,208.5-87.7c136.2,0,258.6,84.2,258.6,190.7S585.9,386.9,449.7,386.9c-87.7,0-164.7-33.6-208.5-87.6   " fill="none" stroke="#030303" stroke-linecap="round" stroke-linejoin="round" stroke-miterlimit="10" stroke-width="6" />
</ns0:g>
</g></g><g id="Interior_Walls"><g style="fill:#555; stroke:black; stroke-width:5;" transform="translate(0.0, 813.0)"><rect height="101.0" width="813.0" x="0" y="0" /></g></g></svg>